<svg width="25" height="25" viewBox="0 0 25 25" fill="none" xmlns="http://www.w3.org/2000/svg">
<path fill-rule="evenodd" clip-rule="evenodd" d="M16.1819 3.2793H8.0916C5.29901 3.2793 3.03516 5.54315 3.03516 8.33574V16.426C3.03516 19.2186 5.29901 21.4825 8.0916 21.4825H16.1819C18.9745 21.4825 21.2383 19.2186 21.2383 16.426V8.33574C21.2383 5.54315 18.9745 3.2793 16.1819 3.2793ZM19.4686 16.426C19.463 18.2389 17.9947 19.7072 16.1819 19.7127H8.0916C6.27871 19.7072 4.81046 18.2389 4.80491 16.426V8.33574C4.81046 6.52285 6.27871 5.0546 8.0916 5.04905H16.1819C17.9947 5.0546 19.463 6.52285 19.4686 8.33574V16.426ZM16.9404 8.58856C17.4989 8.58856 17.9517 8.13579 17.9517 7.57727C17.9517 7.01876 17.4989 6.56598 16.9404 6.56598C16.3818 6.56598 15.9291 7.01876 15.9291 7.57727C15.9291 8.13579 16.3818 8.58856 16.9404 8.58856ZM12.1367 7.83009C9.62341 7.83009 7.58595 9.86756 7.58595 12.3809C7.58595 14.8942 9.62341 16.9317 12.1367 16.9317C14.6501 16.9317 16.6875 14.8942 16.6875 12.3809C16.6903 11.1731 16.2116 10.014 15.3576 9.16002C14.5036 8.30599 13.3445 7.8274 12.1367 7.83009ZM9.35571 12.3809C9.35571 13.9168 10.6008 15.1619 12.1367 15.1619C13.6727 15.1619 14.9178 13.9168 14.9178 12.3809C14.9178 10.8449 13.6727 9.59985 12.1367 9.59985C10.6008 9.59985 9.35571 10.8449 9.35571 12.3809Z" fill="white"/>
</svg>
